# xmcd
#
# Track frame offsets:
#       150
#       13633
#       30905
#       63380
#       76511
#       89462
#       102074
#       115483
#       128045
#       150627
#       164115
#       177572
#       197645
#       213923
#       232513
#       249152
#       266182
#
# Disc length: 3739 seconds
#
# Revision: 1
# Processed by: cddbd v1.5.2PL0 Copyright (c) Steve Scherf et al.
# Submitted via: FreeDbEdit v0.1
#
DISCID=d20e9911
DTITLE=The Temptations - The Original Lead Singers Of
DYEAR=1999
DGENRE=Soul
TTITLE0=My Girl
TTITLE1=Just My Imagination
TTITLE2=Papa was a Rolling Stone
TTITLE3=Get Ready
TTITLE4=Ain't Too Proud to Beg
TTITLE5=Beauty Is Only Skin Deep
TTITLE6=I Can't Get Next to You
TTITLE7=I'm Losing you
TTITLE8=Runaway Child
TTITLE9=Superstar
TTITLE10=The Way You Do the Things You Do
TTITLE11=Masterpiece
TTITLE12=Keep on Truckin'
TTITLE13=Ball of Confusion
TTITLE14=Psychedelic Shack
TTITLE15=Cloud Nine
TTITLE16=I Wish It Would Rain
EXTD=
EXTT0=
EXTT1=
EXTT2=
EXTT3=
EXTT4=
EXTT5=
EXTT6=
EXTT7=
EXTT8=
EXTT9=
EXTT10=
EXTT11=
EXTT12=
EXTT13=
EXTT14=
EXTT15=
EXTT16=
PLAYORDER=
